# xmcd
#
# Track frame offsets:
#	150
#	13302
#	31135
#	48307
#	61282
#	72835
#	87990
#	100435
#	122015
#	133585
#	147610
#	160360
#	178077
#	195387
#	212745
#	238172
#
# Disc length: 3377 seconds
#
# Revision: 0
# Processed by: cddbd v1.5.1PL0 Copyright (c) Steve Scherf et al.
# Submitted via: dBpowerAMP V4.0
#
DISCID=ec0d2f10
DTITLE=Un solo pueblo - 32 Grandes Exitos
DYEAR=1900
DGENRE=Latin
TTITLE0=La Matica
TTITLE1=Viva Venezuela
TTITLE2=Maria Paleta
TTITLE3=La Vela - Con etse dolor
TTITLE4=Cocoye - El mocho Carillo
TTITLE5=Gavilan Trabalengua
TTITLE6=San Juancito
TTITLE7=La Sardina
TTITLE8=Rajunao - Aji
TTITLE9=Canto de guarana
TTITLE10=Las Florecitas
TTITLE11=La Burra
TTITLE12=Pajarillo
TTITLE13=Tambor Culo e'puta
TTITLE14=Calipsos
TTITLE15=Josefa que linda eres
EXTD=
EXTT0=
EXTT1=
EXTT2=
EXTT3=
EXTT4=
EXTT5=
EXTT6=
EXTT7=
EXTT8=
EXTT9=
EXTT10=
EXTT11=
EXTT12=
EXTT13=
EXTT14=
EXTT15=
PLAYORDER=
